<?xml version="1.0" encoding="UTF-8" standalone="no"?>
<!DOCTYPE svg PUBLIC "-//W3C//DTD SVG 1.1//EN" "http://www.w3.org/Graphics/SVG/1.1/DTD/svg11.dtd">
<svg width="100%" height="100%" viewBox="0 0 2862 2342" version="1.1" xmlns="http://www.w3.org/2000/svg" xmlns:xlink="http://www.w3.org/1999/xlink" xml:space="preserve" xmlns:serif="http://www.serif.com/" style="fill-rule:evenodd;clip-rule:evenodd;stroke-linejoin:round;stroke-miterlimit:2;">
    <g transform="matrix(5.55556,0,0,5.55556,-185.819,-806.849)">
        <g transform="matrix(7.83038,0,0,7.83038,-2959.62,-969.583)">
            <path d="M442.538,150.527C443.526,152.173 443.791,155.259 442.558,156.931C442.766,155.858 442.671,154.732 442.224,153.704C441.999,153.186 441.211,153.519 441.439,154.042C442.004,155.341 441.947,156.771 441.294,158.007C441.731,155.501 440.66,153.117 439.078,151.213C438.368,150.359 437.532,149.316 436.579,148.539C438.311,149.443 439.731,150.886 440.708,152.768C440.969,153.271 441.651,152.726 441.393,152.228C440.009,149.564 437.754,147.739 435.038,146.97C437.356,144.962 441.268,148.414 442.538,150.527ZM438.608,145.856C439.529,144.849 440.708,143.526 442.064,143.319C444.092,143.011 445.238,145.054 446.023,146.696C446.66,148.028 447.215,149.349 447.045,150.889C446.913,152.098 446.304,152.882 445.505,153.483C445.309,150.806 444.291,148.396 442.571,146.475C442.201,146.062 441.666,146.772 442.032,147.182C443.687,149.03 444.598,151.414 444.705,154.005C444.56,154.086 444.414,154.166 444.265,154.242C444.344,152.782 443.987,151.25 443.221,149.987C442.291,148.451 440.45,146.688 438.539,145.908C438.562,145.89 438.586,145.88 438.608,145.856ZM440.499,157.205C427.741,167.144 414.541,177.742 401.755,187.722C401.722,187.641 401.666,187.574 401.583,187.531C401.483,187.281 401.355,187.05 401.195,186.845C406.333,182.816 411.471,178.788 416.61,174.759C417.051,174.413 416.569,173.687 416.126,174.034C410.934,178.105 405.742,182.176 400.549,186.247C400.038,185.917 399.417,185.771 398.778,185.896C398.776,185.896 398.775,185.896 398.774,185.895C412.084,175.032 426.148,164.452 440.177,154.764C440.234,154.924 440.282,155.086 440.328,155.249L422.15,169.036C421.703,169.375 422.186,170.101 422.633,169.762C428.593,165.241 434.553,160.72 440.513,156.2C440.552,156.521 440.572,156.846 440.554,157.177C440.536,157.188 440.517,157.19 440.499,157.205ZM400.708,188.421C400.708,188.403 400.713,188.389 400.711,188.37C400.725,188.382 400.737,188.396 400.751,188.406C400.737,188.411 400.722,188.416 400.708,188.421ZM400.379,187.271C400.37,187.253 400.36,187.234 400.349,187.216C400.356,187.22 400.364,187.223 400.371,187.226C400.382,187.236 400.394,187.246 400.406,187.256C400.397,187.262 400.387,187.266 400.379,187.271ZM396.67,187.737C397.208,188.393 397.861,188.882 398.598,189.168C398.142,189.329 397.686,189.49 397.23,189.653C397.208,189.643 397.192,189.627 397.167,189.621C396.425,189.424 395.845,188.846 395.57,188.085C395.376,187.548 394.59,187.884 394.786,188.423C395.042,189.134 395.5,189.683 396.071,190.064C395.708,190.196 395.342,190.321 394.98,190.455C394.943,190.376 394.882,190.306 394.778,190.267C394.149,190.031 393.639,189.588 393.344,188.938C393.111,188.425 392.324,188.758 392.559,189.276C392.869,189.957 393.341,190.5 393.943,190.854C393.662,190.96 393.381,191.072 393.1,191.179C393.046,191.098 392.97,191.03 392.857,191.002C392.212,190.844 391.697,190.37 391.439,189.718C391.229,189.189 390.444,189.524 390.654,190.056C390.929,190.75 391.398,191.278 391.991,191.607C391.659,191.735 391.325,191.861 390.993,191.991C390.977,191.915 390.948,191.839 390.888,191.771C390.526,191.364 390.164,190.956 389.8,190.547C389.432,190.132 388.897,190.844 389.261,191.254C389.571,191.603 389.881,191.952 390.191,192.3C389.924,192.406 389.655,192.503 389.388,192.61C389.373,192.597 389.364,192.581 389.346,192.57C388.044,191.758 387.885,189.703 388.912,188.527C388.977,188.443 389,188.357 389.006,188.274C391.558,185.218 394.178,182.229 396.88,179.324C396.904,179.438 396.917,179.554 396.917,179.664C396.915,180.275 395.611,181.84 396.021,182.361C396.224,182.619 396.633,182.181 396.901,182.209C397.401,182.262 397.744,182.828 397.805,183.343C397.908,184.194 397.41,184.787 397.309,185.576C397.163,186.716 397.901,186.836 398.631,186.791C399.305,187.042 399.793,187.688 399.878,188.473C399.881,188.496 399.892,188.511 399.897,188.532C398.907,188.438 398.018,188.007 397.355,187.197C397.005,186.769 396.318,187.306 396.67,187.737ZM386.51,193.779C386.496,193.742 386.482,193.706 386.459,193.674C386.853,193.407 387.247,193.14 387.64,192.873C388.016,192.617 387.763,192.1 387.41,192.08C387.461,192.03 387.513,191.98 387.564,191.93C387.619,191.877 387.655,191.819 387.679,191.758C387.857,192.216 388.115,192.638 388.461,192.979C387.81,193.243 387.16,193.509 386.51,193.779ZM387.423,190.19C387.41,190.513 387.433,190.834 387.498,191.148C387.378,191.07 387.226,191.064 387.082,191.204C386.391,191.871 385.702,192.538 385.011,193.205C385.808,192.193 386.61,191.186 387.423,190.19ZM398.171,181.943C398.076,181.813 397.963,181.703 397.842,181.606C410.822,171.218 424.637,160.843 438.38,151.778C438.385,151.775 438.387,151.77 438.392,151.767C438.946,152.434 439.447,153.165 439.83,153.943C425.759,163.654 411.654,174.265 398.303,185.159C398.713,184.082 398.878,182.917 398.171,181.943ZM423.764,156.827C425.544,155.54 427.336,154.272 429.141,153.025C430.04,152.405 431.032,151.851 431.878,151.152C432.226,150.866 432.536,150.555 432.864,150.274C433.159,150.022 433.469,149.795 433.833,149.632C434.131,149.498 434.427,149.426 434.724,149.267C435.379,148.914 435.398,148.779 436,149.28C436.645,149.816 437.25,150.458 437.821,151.104C424.145,160.129 410.4,170.448 397.479,180.785C397.818,179.993 397.921,179.137 397.399,178.362C397.295,178.207 397.165,178.091 397.026,177.993C405.674,170.556 414.581,163.46 423.764,156.827ZM436.3,145.519C435.722,145.583 435.237,145.804 434.738,146.122C433.748,146.754 432.859,147.538 432.567,148.801C432.235,150.241 431.432,150.401 430.297,151.174C429.087,151.998 427.883,152.831 426.685,153.673C424.336,155.324 422.007,157.01 419.697,158.725C415.099,162.136 410.573,165.66 406.111,169.278C403.924,171.051 401.754,172.846 399.599,174.664C397.044,176.819 394.801,179.113 392.942,182.011C391.958,183.544 390.843,184.763 389.675,186.136C387.282,188.949 384.954,191.828 382.695,194.767C382.613,194.875 382.586,194.987 382.598,195.092C382.509,195.204 382.421,195.316 382.333,195.429C382.17,195.633 382.215,196.039 382.474,196.125C382.731,196.211 382.984,196.216 383.222,196.135C383.222,196.135 383.223,196.135 383.223,196.134L383.224,196.134C383.283,196.114 383.339,196.094 383.395,196.062C386.532,194.696 389.695,193.404 392.881,192.188C394.53,191.559 396.184,190.949 397.844,190.359C400.264,189.5 402.082,188.573 404.161,186.946C406.468,185.139 408.772,183.327 411.074,181.512C415.72,177.849 420.358,174.173 424.999,170.502C427.971,168.15 430.946,165.8 433.924,163.458C435.438,162.268 436.953,161.08 438.468,159.894C438.773,159.656 439.244,159.113 439.6,159.009C439.945,158.909 439.974,159.049 440.32,159.079C442.252,159.249 443.722,157.209 444.128,155.294C445.753,154.504 447.442,153.5 447.903,151.49C448.365,149.471 447.342,147.335 446.466,145.662C445.618,144.042 444.435,142.345 442.514,142.371C440.67,142.396 439.189,143.955 437.967,145.292C437.852,145.417 437.836,145.554 437.872,145.675C437.803,145.439 436.5,145.497 436.3,145.519Z" style="fill:white;fill-rule:nonzero;"/>
        </g>
    </g>
</svg>
