<?xml version="1.0" encoding="UTF-8" standalone="no"?>
<!DOCTYPE svg PUBLIC "-//W3C//DTD SVG 1.1//EN" "http://www.w3.org/Graphics/SVG/1.1/DTD/svg11.dtd">
<svg width="100%" height="100%" viewBox="0 0 3427 3789" version="1.1" xmlns="http://www.w3.org/2000/svg" xmlns:xlink="http://www.w3.org/1999/xlink" xml:space="preserve" xmlns:serif="http://www.serif.com/" style="fill-rule:evenodd;clip-rule:evenodd;stroke-linejoin:round;stroke-miterlimit:2;">
    <g transform="matrix(5.55556,0,0,5.55556,-2.68412e-12,-3.94746e-14)">
        <g transform="matrix(8.71817,0,0,8.71817,-2368.3,-34.5154)">
            <path d="M297.138,37.661C296.609,37.635 296.102,37.511 295.649,37.288C294.805,36.871 294.445,35.866 294.468,35.107C294.481,34.645 294.632,34.374 294.767,34.318C294.791,34.308 294.818,34.303 294.851,34.303C294.999,34.303 295.243,34.409 295.57,34.71C296.095,35.193 296.41,35.89 296.739,36.685C296.874,37.009 297.006,37.334 297.138,37.661ZM315.66,36.515C316.043,35.604 316.535,34.825 317.256,34.243C317.73,33.862 318.438,33.667 318.943,33.78C319.208,33.839 319.389,33.973 319.493,34.187C319.809,34.838 319.04,35.654 318.363,35.992C317.534,36.406 316.583,36.576 315.66,36.515ZM296.097,10.106C304.44,5.038 317.912,5.534 324.674,14.353C330.171,21.524 328.803,31.828 325.008,38.858C324.024,40.682 322.77,42.151 321.443,43.706C321.014,44.207 320.583,44.713 320.154,45.237C318.187,47.645 317.37,50.579 316.83,53.13C316.617,54.132 316.437,55.155 316.257,56.183C315.503,60.479 314.723,64.922 311.377,67.995C311.335,68.033 311.305,68.079 311.281,68.127C310.651,68.343 309.985,68.518 309.263,68.613C309.615,58.523 312.275,48.609 314.853,39.018C315.006,38.452 315.159,37.906 315.332,37.391C316.504,37.515 317.715,37.328 318.768,36.802C319.956,36.209 320.856,34.92 320.308,33.791C320.082,33.326 319.678,33.016 319.14,32.896C318.362,32.723 317.377,32.981 316.689,33.538C315.76,34.285 315.162,35.321 314.737,36.377C313.959,36.194 313.223,35.845 312.611,35.339C312.186,34.989 311.823,34.566 311.532,34.099C312.502,33.147 313.213,31.898 313.473,30.515C313.591,29.885 313.559,28.987 313.113,28.356C312.869,28.011 312.529,27.795 312.129,27.733C311.06,27.571 310.28,28.571 310,29.573C309.604,30.994 309.776,32.556 310.4,33.898C309.494,34.607 308.402,35.035 307.276,35.043L307.248,35.043C306.059,35.043 304.875,34.506 303.998,33.645C304.356,32.936 304.629,32.225 304.818,31.568C305.139,30.448 305.031,29.6 304.496,29.047C304.13,28.668 303.555,28.495 302.957,28.588C302.361,28.68 301.865,29.015 301.628,29.485C301.294,30.153 301.642,31.269 302.026,32.272C302.238,32.823 302.534,33.331 302.894,33.782C302.037,35.257 300.873,36.46 299.622,37.098C299.123,37.352 298.605,37.52 298.091,37.604C297.921,37.181 297.75,36.758 297.576,36.337C297.206,35.442 296.844,34.652 296.183,34.044C295.378,33.302 294.777,33.331 294.417,33.483C293.905,33.698 293.586,34.295 293.562,35.081C293.531,36.153 294.04,37.503 295.25,38.1C295.929,38.436 296.711,38.597 297.5,38.568C301.171,47.901 303.718,57.979 305.089,68.557C304.272,68.457 303.459,68.325 302.655,68.184C302.637,68.117 302.609,68.053 302.559,67.998C299.429,64.522 298.7,60.722 297.926,56.699C297.604,55.02 297.271,53.284 296.754,51.504C295.851,48.391 293.839,45.911 291.895,43.512C290.353,41.611 288.76,39.644 287.757,37.395C283.317,27.428 286.902,15.696 296.097,10.106ZM310.873,29.816C311.04,29.218 311.452,28.622 311.909,28.622C311.936,28.622 311.963,28.623 311.99,28.628C312.148,28.652 312.27,28.732 312.374,28.879C312.599,29.199 312.686,29.802 312.583,30.347C312.375,31.452 311.839,32.457 311.101,33.253C310.662,32.166 310.559,30.94 310.873,29.816ZM303.362,32.884C303.165,32.592 303,32.278 302.872,31.948C302.299,30.453 302.378,30.012 302.438,29.892C302.542,29.686 302.792,29.53 303.094,29.484C303.154,29.475 303.213,29.47 303.271,29.47C303.505,29.47 303.715,29.544 303.844,29.677C304.21,30.055 304.102,30.778 303.948,31.318C303.792,31.856 303.595,32.381 303.362,32.884ZM303.541,34.471C304.568,35.402 305.885,35.976 307.284,35.949C308.56,35.939 309.802,35.472 310.84,34.693C311.168,35.198 311.57,35.655 312.034,36.038C312.727,36.609 313.553,37.01 314.427,37.23C314.25,37.773 314.107,38.304 313.979,38.783C311.379,48.455 308.695,58.453 308.354,68.68C308.164,68.691 307.983,68.719 307.789,68.722C307.199,68.733 306.608,68.7 306.018,68.65C304.655,58.007 302.108,47.864 298.431,38.463C298.972,38.356 299.512,38.169 300.033,37.905C301.536,37.14 302.704,35.851 303.541,34.471ZM313.414,68.246C311.911,69.347 310.066,70.007 308.205,70.103C307.954,70.116 307.762,70.33 307.775,70.579C307.788,70.821 307.988,71.009 308.227,71.009C308.235,71.009 308.243,71.009 308.25,71.008C309.958,70.92 311.651,70.394 313.124,69.518C312.984,69.76 312.809,69.98 312.608,70.149C311.819,70.813 310.708,71.037 309.726,71.169C307.862,71.42 305.967,71.438 304.096,71.222C303.234,71.122 302.271,70.939 301.678,70.339C301.385,70.043 301.218,69.56 301.264,69.136C301.274,69.04 301.299,68.929 301.347,68.819C301.542,68.904 301.739,68.944 301.883,68.969C303.725,69.294 305.625,69.63 307.547,69.63C307.632,69.63 307.718,69.629 307.803,69.628C309.968,69.594 311.887,69.071 313.396,68.14C313.403,68.175 313.409,68.21 313.414,68.246ZM313.602,70.414C313.649,70.625 313.652,70.841 313.632,71.057C313.542,71.063 313.451,71.09 313.375,71.153C311.801,72.478 309.641,73.103 307.608,72.828C307.363,72.796 307.132,72.967 307.098,73.215C307.065,73.463 307.239,73.691 307.486,73.726C307.843,73.773 308.204,73.798 308.564,73.798C310.151,73.798 311.738,73.329 313.079,72.48C312.954,72.653 312.817,72.813 312.668,72.946C311.926,73.605 310.829,74.007 309.409,74.141C307.861,74.285 306.313,74.128 304.868,73.936C303.943,73.813 303.059,73.661 302.405,73.149C301.926,72.775 301.605,72.072 301.763,71.515C302.451,71.89 303.254,72.037 303.992,72.122C304.892,72.226 305.797,72.278 306.702,72.278C307.753,72.278 308.804,72.207 309.846,72.067C310.958,71.918 312.225,71.655 313.192,70.842C313.34,70.717 313.475,70.57 313.602,70.414ZM312.52,75.481C311.04,76.203 309.354,76.471 307.727,76.229C307.482,76.195 307.249,76.361 307.212,76.61C307.175,76.857 307.346,77.088 307.593,77.125C308.033,77.19 308.477,77.223 308.919,77.223C309.873,77.223 310.82,77.055 311.727,76.762C311.246,77.204 310.59,77.565 309.759,77.832C308.696,78.175 307.596,78.323 306.475,78.275C305.495,78.233 304.138,77.993 303.247,77.094C302.574,76.415 302.26,75.207 302.766,74.367C303.397,74.62 304.08,74.745 304.749,74.834C305.832,74.978 306.975,75.103 308.143,75.103C308.59,75.103 309.042,75.085 309.494,75.042C310.679,74.931 311.673,74.641 312.473,74.185C312.633,74.574 312.644,75.028 312.52,75.481ZM308.767,81.031C307.72,81.48 306.436,81.29 305.565,80.555C305.101,80.165 304.738,79.507 304.815,78.921C305.316,79.055 305.847,79.155 306.436,79.18C306.585,79.187 306.736,79.19 306.885,79.19C307.955,79.19 309.013,79.024 310.038,78.695C310.242,78.629 310.424,78.55 310.612,78.473C310.512,79.574 309.784,80.594 308.767,81.031ZM286.929,37.765C287.981,40.123 289.613,42.135 291.191,44.082C293.167,46.518 295.032,48.819 295.883,51.756C296.388,53.496 296.718,55.211 297.038,56.871C297.748,60.572 298.429,64.09 300.908,67.406C300.865,67.459 300.828,67.519 300.797,67.584C300.725,67.746 300.709,67.927 300.737,68.099C300.537,68.359 300.402,68.676 300.363,69.04C300.289,69.732 300.542,70.463 301.019,70.957C300.519,71.965 301.017,73.214 301.846,73.863C301.886,73.893 301.931,73.911 301.971,73.939C301.254,75.173 301.692,76.813 302.603,77.731C302.968,78.1 303.429,78.385 303.945,78.617C303.724,79.586 304.254,80.635 304.981,81.248C305.7,81.855 306.64,82.175 307.578,82.175C308.108,82.175 308.637,82.073 309.125,81.863C310.478,81.282 311.444,79.903 311.529,78.432C311.537,78.301 311.485,78.182 311.401,78.094C311.545,78.245 312.752,77.023 312.86,76.866C313.175,76.4 313.417,75.737 313.508,75.181C313.536,75.017 313.291,73.601 313.239,73.645C313.249,73.637 313.26,73.631 313.27,73.623C314.279,72.726 314.956,71.074 314.295,69.652C314.259,69.576 314.203,69.52 314.138,69.477C314.408,68.76 314.432,67.957 314.024,67.269C313.898,67.054 313.619,66.983 313.405,67.11C315.795,64.013 316.486,60.123 317.149,56.339C317.329,55.322 317.505,54.309 317.715,53.318C318.233,50.873 319.011,48.068 320.856,45.811C321.28,45.291 321.708,44.79 322.131,44.294C323.491,42.702 324.776,41.197 325.806,39.288C329.739,32.001 331.137,21.295 325.392,13.802C318.336,4.597 304.304,4.058 295.626,9.333C286.043,15.158 282.304,27.381 286.929,37.765Z" style="fill:white;fill-rule:nonzero;"/>
        </g>
        <g transform="matrix(8.71817,0,0,8.71817,-2368.3,-34.5154)">
            <path d="M293.76,16.612C294.321,15.877 295.083,15.021 296.03,14.914C296.87,14.815 297.668,15.307 298.427,15.899C294.337,19.289 291.615,24.167 290.879,29.43L289.16,29.086C289.414,24.601 291.041,20.186 293.76,16.612ZM288.601,29.898L291.178,30.413C291.208,30.419 291.238,30.422 291.267,30.422C291.362,30.422 291.456,30.392 291.533,30.335C291.635,30.261 291.702,30.146 291.717,30.021C292.341,24.625 295.153,19.607 299.428,16.256C299.536,16.171 299.6,16.042 299.602,15.905C299.603,15.768 299.543,15.638 299.438,15.551C298.409,14.697 297.272,13.863 295.928,14.014C294.641,14.159 293.709,15.185 293.041,16.063C290.13,19.886 288.423,24.635 288.236,29.436C288.228,29.658 288.382,29.854 288.601,29.898Z" style="fill:white;fill-rule:nonzero;"/>
        </g>
        <g transform="matrix(8.71817,0,0,8.71817,-2368.3,-34.5154)">
            <path d="M272.628,28.732C272.874,28.072 273.708,27.479 274.333,27.341C274.649,27.27 274.963,27.236 275.295,27.236C276.478,27.236 277.603,27.673 278.794,28.136C279.165,28.279 279.54,28.425 279.92,28.558C278.593,29.009 277.07,29.448 275.251,29.902C274.828,30.023 274.345,30.16 273.893,30.16L273.893,30.612L273.827,30.158C273.375,30.145 272.982,29.973 272.777,29.7C272.548,29.395 272.5,29.079 272.628,28.732ZM273.8,31.064C273.805,31.064 273.889,31.065 273.893,31.065C274.472,31.065 275.017,30.911 275.486,30.777C277.339,30.314 278.905,29.862 280.269,29.395C280.704,29.247 281.133,29.092 281.555,28.93C281.743,28.857 281.86,28.67 281.843,28.469C281.827,28.269 281.679,28.103 281.483,28.063C280.699,27.903 279.933,27.606 279.123,27.291C277.906,26.819 276.647,26.331 275.295,26.331C274.902,26.331 274.512,26.373 274.137,26.456C273.276,26.648 272.156,27.401 271.779,28.418C271.542,29.057 271.636,29.688 272.051,30.243C272.425,30.743 273.063,31.041 273.8,31.064Z" style="fill:white;fill-rule:nonzero;"/>
        </g>
        <g transform="matrix(8.71817,0,0,8.71817,-2368.3,-34.5154)">
            <path d="M281.564,5.397C281.696,5.03 282.143,4.865 282.529,4.865C282.681,4.865 282.833,4.89 282.967,4.936C283.612,5.16 284.122,5.747 284.572,6.265L286.636,8.641C285.699,8.118 284.728,7.646 283.703,7.29L283.419,7.195C282.917,7.026 282.44,6.867 282.065,6.579C281.706,6.303 281.418,5.809 281.564,5.397ZM281.513,7.297C282.008,7.678 282.58,7.869 283.132,8.054L283.406,8.146C285.259,8.788 286.969,9.861 288.624,10.898C288.698,10.945 288.781,10.968 288.864,10.968C288.993,10.968 289.12,10.913 289.208,10.81C289.354,10.639 289.353,10.387 289.206,10.218L285.255,5.671C284.757,5.098 284.137,4.383 283.264,4.08C283.032,4 282.785,3.959 282.529,3.959C281.669,3.959 280.957,4.405 280.711,5.094C280.407,5.951 280.914,6.837 281.513,7.297Z" style="fill:white;fill-rule:nonzero;"/>
        </g>
        <g transform="matrix(8.71817,0,0,8.71817,-2368.3,-34.5154)">
            <path d="M338.851,15.922C339.41,15.922 339.986,16.05 340.545,16.294C340.827,16.433 341.201,16.674 341.382,17.038C341.529,17.332 341.508,17.69 341.334,17.889C341.145,18.106 340.79,18.185 340.378,18.258L335.66,19.102C335.51,19.128 334.919,19.195 334.268,19.269C333.951,19.305 333.678,19.336 333.446,19.363C334.996,17.707 336.748,15.922 338.851,15.922ZM332.238,20.439C332.29,20.439 332.341,20.431 332.392,20.413C332.604,20.37 333.663,20.249 334.371,20.169C335.048,20.092 335.665,20.021 335.82,19.993L340.538,19.15C340.961,19.074 341.603,18.959 342.017,18.484C342.434,18.006 342.505,17.263 342.194,16.635C341.96,16.166 341.529,15.768 340.926,15.473C340.234,15.17 339.536,15.016 338.851,15.016C336.263,15.016 334.308,17.111 332.583,18.959C332.355,19.204 332.13,19.444 331.911,19.672C331.738,19.853 331.743,20.14 331.923,20.313C332.011,20.397 332.125,20.439 332.238,20.439Z" style="fill:white;fill-rule:nonzero;"/>
        </g>
        <g transform="matrix(8.71817,0,0,8.71817,-2368.3,-34.5154)">
            <path d="M334.249,30.665C337.094,30.665 338.969,31.169 339.982,32.205C340.226,32.454 340.34,32.694 340.322,32.916C340.295,33.238 339.999,33.518 339.754,33.695C339.433,33.93 339.093,34.044 338.717,34.044C337.802,34.044 336.815,33.36 335.969,32.691C335.612,32.409 335.247,32.131 334.88,31.853C334.378,31.472 333.865,31.082 333.375,30.678C333.657,30.67 333.95,30.665 334.249,30.665ZM334.333,32.574C334.695,32.849 335.055,33.123 335.407,33.401C336.423,34.206 337.528,34.95 338.717,34.95C339.284,34.95 339.813,34.774 340.289,34.427C341.007,33.903 341.194,33.358 341.225,32.993C341.253,32.65 341.172,32.127 340.629,31.571C339.042,29.947 336.228,29.76 334.249,29.76C333.508,29.76 332.806,29.79 332.198,29.818C332.016,29.827 331.857,29.944 331.794,30.114C331.731,30.286 331.777,30.478 331.909,30.602C332.667,31.311 333.514,31.953 334.333,32.574Z" style="fill:white;fill-rule:nonzero;"/>
        </g>
        <g transform="matrix(8.71817,0,0,8.71817,-2368.3,-34.5154)">
            <path d="M316.176,18.038C316.214,18.038 316.253,18.033 316.292,18.022L320.806,16.833C321.048,16.769 321.192,16.521 321.128,16.28C321.066,16.038 320.821,15.894 320.575,15.957L316.06,17.147C315.819,17.21 315.675,17.458 315.739,17.7C315.792,17.903 315.976,18.038 316.176,18.038Z" style="fill:white;fill-rule:nonzero;"/>
        </g>
        <g transform="matrix(8.71817,0,0,8.71817,-2368.3,-34.5154)">
            <path d="M317.011,19.293C316.763,19.316 316.58,19.538 316.604,19.787C316.626,20.021 316.824,20.197 317.054,20.197C317.069,20.197 317.083,20.196 317.098,20.194C318.719,20.04 320.283,19.464 321.618,18.53C321.822,18.386 321.873,18.103 321.728,17.899C321.584,17.693 321.302,17.644 321.097,17.787C319.891,18.632 318.478,19.153 317.011,19.293Z" style="fill:white;fill-rule:nonzero;"/>
        </g>
        <g transform="matrix(8.71817,0,0,8.71817,-2368.3,-34.5154)">
            <path d="M317.283,22.051C317.299,22.29 317.498,22.475 317.734,22.475C317.745,22.475 317.754,22.474 317.764,22.474C319.969,22.33 322.15,21.677 324.07,20.585C324.288,20.461 324.364,20.185 324.24,19.968C324.116,19.749 323.838,19.673 323.623,19.798C321.821,20.822 319.775,21.436 317.706,21.569C317.457,21.586 317.267,21.801 317.283,22.051Z" style="fill:white;fill-rule:nonzero;"/>
        </g>
        <g transform="matrix(8.71817,0,0,8.71817,-2368.3,-34.5154)">
            <path d="M323.791,25.506C323.119,26.05 322.239,26.339 321.375,26.311C321.133,26.288 320.916,26.497 320.905,26.747C320.896,26.997 321.09,27.207 321.34,27.216C321.395,27.219 321.449,27.219 321.503,27.219C322.53,27.219 323.563,26.856 324.36,26.21C324.554,26.052 324.584,25.768 324.427,25.573C324.27,25.377 323.981,25.349 323.791,25.506Z" style="fill:white;fill-rule:nonzero;"/>
        </g>
    </g>
</svg>
