<?xml version="1.0" encoding="UTF-8" standalone="no"?>
<!DOCTYPE svg PUBLIC "-//W3C//DTD SVG 1.1//EN" "http://www.w3.org/Graphics/SVG/1.1/DTD/svg11.dtd">
<svg width="100%" height="100%" viewBox="0 0 3427 2835" version="1.1" xmlns="http://www.w3.org/2000/svg" xmlns:xlink="http://www.w3.org/1999/xlink" xml:space="preserve" xmlns:serif="http://www.serif.com/" style="fill-rule:evenodd;clip-rule:evenodd;stroke-linejoin:round;stroke-miterlimit:2;">
    <g transform="matrix(5.55556,0,0,5.55556,0,0)">
        <g transform="matrix(7.70546,0,0,7.70546,-2767.07,-1647.47)">
            <path d="M425.017,254.064C421.382,254.611 417.623,255.135 413.879,255.521C413.721,255.461 413.545,255.461 413.407,255.571C410.46,255.866 407.563,255.963 404.601,256.009C402.111,256.229 399.55,256.087 397.138,256.844C396.018,257.195 394.974,257.822 393.93,258.767C392.58,259.986 391.437,261.567 390.328,263.095C389.383,264.38 388.504,265.599 387.526,266.577C384.187,269.916 380.497,272.893 376.52,275.42L377.245,273.508L378.013,271.476C378.013,271.476 379.53,267.505 379.589,267.339C379.591,267.337 379.593,267.336 379.595,267.335L379.595,267.323C379.683,267.258 379.782,267.191 379.87,267.126C380.167,266.906 380.156,266.544 379.991,266.302L379.991,266.291L381.638,261.942C381.638,261.942 382.122,260.667 382.122,260.656L383.275,257.636C383.341,257.438 383.308,257.229 383.176,257.076C383.067,256.955 382.913,256.888 382.759,256.888C382.715,256.888 382.671,256.888 382.638,256.899C381.935,257.063 381.21,257.151 380.485,257.151C377.222,257.151 373.85,255.351 371.357,252.549C371.28,252.472 371.203,252.396 371.125,252.297C370.225,251.242 369.457,250.056 368.863,248.771C368.875,248.562 368.764,248.375 368.611,248.265C368.467,247.936 368.347,247.605 368.226,247.276C366.82,243.256 366.765,238.938 367.15,234.716C367.181,234.649 367.22,234.589 367.25,234.521C367.333,234.335 367.305,234.159 367.226,234.007C367.446,231.941 367.753,229.898 368.061,227.943L368.138,227.46C368.699,223.791 368.808,223.033 372.048,221.1C375.619,218.979 380.035,218.606 383.934,218.266L421.557,215.047L421.667,215.036C422.392,214.981 423.216,214.904 424.127,214.904C426.347,214.904 428.248,215.354 429.917,216.266C434.069,218.54 435.75,223.033 436.563,225.197C437.892,228.734 437.936,231.601 437.991,236.357C438.056,240.817 438.079,243.059 437.321,244.97C435.069,250.638 428.73,253.516 425.017,254.064ZM432.954,258.215C433.428,257.556 433.516,256.142 433.63,255.354C433.75,254.533 433.846,253.762 434.029,252.961C434.108,252.613 433.937,251.775 433.57,251.446C434.508,250.728 435.396,249.905 436.178,248.968C435.98,251.046 435.286,254.974 432.954,258.215ZM432.347,256.292C432.036,257.729 431.527,259.125 430.837,260.423C430.818,260.46 430.816,260.496 430.805,260.533C430.388,260.882 429.95,261.214 429.466,261.513C428.645,262.021 427.751,262.413 426.815,262.714C427.94,260.067 427.868,256.978 428.821,254.255C428.838,254.203 428.836,254.158 428.84,254.111C430.096,253.611 431.409,252.942 432.663,252.099C432.588,252.719 432.72,253.531 432.723,253.866C432.728,254.651 432.513,255.528 432.347,256.292ZM420.768,264.116C422.081,261.291 423.02,258.309 423.936,255.333C424.35,255.271 424.771,255.214 425.182,255.152C425.903,255.045 426.722,254.846 427.585,254.568C426.765,257.392 426.851,260.563 425.375,263.132C423.855,263.506 422.318,263.835 420.768,264.116ZM419.45,264.362C419.438,264.364 419.426,264.367 419.416,264.369C417.847,264.618 416.434,264.787 415.111,264.909C416.227,262.146 417.306,259.367 418.385,256.589C418.464,256.386 418.41,256.224 418.3,256.108C419.788,255.919 421.264,255.717 422.733,255.506C421.806,258.52 420.855,261.537 419.45,264.362ZM410.258,265.188C410.75,264.202 411.081,263.161 411.475,262.106C412.185,260.214 413.147,258.406 414.061,256.604C415.164,256.487 416.267,256.365 417.369,256.231C417.356,256.254 417.336,256.271 417.326,256.297C416.196,259.207 415.068,262.117 413.895,265.011C412.611,265.104 411.409,265.157 410.258,265.188ZM407.915,265.236C407.278,265.248 406.62,265.259 405.962,265.28C406.566,263.963 407.295,262.708 407.842,261.365C408.361,260.093 408.524,258.582 409.456,257.518C409.598,257.356 409.616,257.173 409.57,257.009L409.573,257.009C410.632,256.934 411.7,256.833 412.766,256.731C412.034,258.171 411.298,259.615 410.689,261.106C410.122,262.496 409.726,263.924 408.97,265.218C408.616,265.225 408.264,265.23 407.915,265.236ZM404.75,265.313C403.894,265.347 403.004,265.391 402.07,265.456C401.723,265.478 401.366,265.511 401.018,265.554C401.716,264 402.581,262.534 403.344,261.009C403.98,259.738 404.531,258.443 405.236,257.218C406.286,257.195 407.347,257.151 408.419,257.076L408.43,257.076C408.435,257.076 408.44,257.074 408.445,257.074C407.75,258.031 407.459,259.15 407.074,260.276C406.474,262.024 405.496,263.617 404.76,265.313L404.75,265.313ZM395.809,266.247C395.804,266.248 395.8,266.249 395.796,266.25C397.679,263.301 399.354,260.223 401.441,257.408C401.468,257.369 401.476,257.332 401.493,257.296L401.51,257.296C402.169,257.262 402.839,257.262 403.488,257.251L403.951,257.251C403.282,258.507 402.731,259.822 402.069,261.089C401.273,262.609 400.437,264.094 399.774,265.676C398.456,265.818 397.126,266.006 395.809,266.247ZM394.451,266.327C394.41,266.389 394.391,266.449 394.378,266.509C394.375,266.51 394.373,266.51 394.37,266.511C393.513,266.676 392.645,266.862 391.789,267.071C392.469,265.939 393.041,264.753 393.7,263.6C394.875,261.535 396.446,259.722 397.875,257.822C397.885,257.8 397.907,257.789 397.907,257.767C398.621,257.569 399.357,257.46 400.104,257.395C400.109,257.393 400.114,257.393 400.119,257.393C398.065,260.266 396.383,263.374 394.451,266.327ZM390.25,267.467C389.273,267.708 388.295,267.994 387.318,268.29C387.647,267.972 387.988,267.675 388.306,267.356C389.338,266.313 390.294,265.006 391.217,263.731C392.283,262.26 393.403,260.732 394.667,259.58C395.051,259.228 395.447,258.932 395.831,258.668C394.875,259.909 393.898,261.15 393.074,262.49C392.074,264.127 391.36,265.918 390.25,267.467ZM376.299,272.904C375.07,274.024 373.917,275.222 372.774,276.463C372.038,277.254 371.269,277.99 370.631,278.813C370.61,278.813 370.577,278.825 370.555,278.825C370.072,278.891 369.588,278.913 369.105,278.891C369.193,278.583 369.281,278.265 369.379,277.957L369.379,277.946C370.379,276.628 371.456,275.376 372.477,274.079C374.202,271.904 375.926,270.213 377.937,268.598L376.299,272.904ZM374.916,276.54C374.872,276.661 374.883,276.781 374.916,276.902C374.246,277.44 373.411,277.99 372.4,278.374C373.038,277.671 373.741,277.023 374.344,276.364C374.696,275.991 375.047,275.617 375.41,275.255L374.916,276.54ZM370.819,273.146C370.83,273.112 370.84,273.091 370.84,273.058C372.18,271.509 373.411,269.872 374.817,268.4C376.432,266.72 378.124,265.138 379.836,263.578L378.672,266.643C376.508,268.225 374.509,269.784 372.73,271.915C371.884,272.948 371.06,274.002 370.236,275.035C370.423,274.398 370.621,273.771 370.819,273.146ZM381.506,259.184L380.694,261.314C378.42,263.369 376.157,265.401 374.037,267.62C373.202,268.51 372.412,269.455 371.642,270.399C372.18,268.686 372.906,266.972 374.268,265.929C375.531,264.962 376.563,263.644 377.717,262.534C378.321,261.952 378.947,261.382 379.584,260.82C380.013,260.438 381.309,259.701 381.506,259.184ZM370.763,268.026C371.665,266.533 372.839,265.138 373.708,263.688C374.85,261.754 375.817,259.767 377.42,258.162C377.519,258.063 377.563,257.955 377.563,257.844C378.53,258.107 379.518,258.25 380.497,258.25C380.65,258.25 380.803,258.229 380.958,258.218C377.387,261.106 374.136,264.357 371.28,267.938C371.104,267.982 370.939,268.005 370.763,268.026ZM369.467,268.093C368.951,268.07 368.435,267.982 367.94,267.84C368.599,265.906 369.577,263.918 370.357,262.205C371.334,260.063 372.971,258.349 374.026,256.296C374.828,256.789 375.663,257.195 376.52,257.516C374.916,259.162 373.927,261.184 372.751,263.127C371.752,264.797 370.423,266.379 369.467,268.093ZM366.886,267.478C366.227,267.214 365.589,266.852 365.007,266.423C366.38,261.865 369.072,258.097 370.961,253.779C371.631,254.493 372.356,255.119 373.114,255.669C372.038,257.8 370.335,259.559 369.335,261.766C368.523,263.578 367.556,265.522 366.886,267.478ZM364.074,265.676C363.393,265.05 362.81,264.357 362.36,263.611C362.316,263.534 362.272,263.457 362.228,263.38C362.986,258.503 366.029,254.405 368.27,250.066C368.808,251.066 369.434,252.011 370.148,252.867C369.061,255.493 367.347,257.8 366.171,260.382C365.37,262.117 364.634,263.853 364.074,265.676ZM361.449,261.8C360.977,260.637 360.681,259.453 360.483,258.259C360.914,254.859 362.331,251.471 363.843,248.426C364.513,247.075 365.599,245.828 366.347,244.474L366.347,244.486C366.545,245.552 366.831,246.596 367.194,247.639C367.336,248.045 367.49,248.44 367.655,248.825C365.557,253.153 362.602,257.13 361.449,261.8ZM360.208,254.564L360.208,254.549C360.196,253.691 360.229,252.89 360.262,252.153C360.317,251.055 360.416,249.957 360.503,248.858C360.537,248.496 360.559,248.145 360.581,247.793L360.581,247.789C360.682,247.727 360.767,247.631 360.806,247.48C361.463,244.939 362.527,242.434 363.839,240.159C364.477,239.054 365.206,238.02 365.887,236.955C365.887,236.961 365.886,236.967 365.886,236.973C365.809,238.774 365.832,240.587 366.029,242.388C366.03,242.391 366.03,242.394 366.03,242.396C366.009,242.437 365.984,242.471 365.972,242.521C365.655,243.819 364.717,244.769 364.013,245.859C363.167,247.171 362.533,248.599 361.923,250.03C361.285,251.529 360.682,253.028 360.208,254.564ZM360.822,243.959C360.987,241.762 361.294,239.609 362.119,237.401C363.513,233.677 365.206,230.074 367.161,226.614C367.117,226.822 367.083,227.054 367.05,227.295L366.974,227.778C366.647,229.903 366.299,232.126 366.08,234.392C365.05,236.493 363.549,238.296 362.471,240.373C361.869,241.534 361.31,242.734 360.822,243.96L360.822,243.959ZM438.968,242.751C439.221,240.631 439.123,238.467 439.089,236.336C439.035,231.634 438.991,228.525 437.595,224.801C436.739,222.517 434.948,217.771 430.444,215.311C428.61,214.3 426.534,213.806 424.127,213.806C423.172,213.806 422.283,213.882 421.569,213.948L383.835,217.178C379.826,217.519 375.267,217.903 371.489,220.155C367.358,222.615 365.348,227.316 363.404,231.502C362.14,234.216 360.734,237.159 360.076,240.081C359.427,242.927 359.647,245.87 359.405,248.771C359.317,249.88 359.229,250.989 359.164,252.099C359.076,253.844 359.042,256.017 359.382,258.267C359.376,258.315 359.367,258.362 359.361,258.412C359.343,258.564 359.388,258.677 359.46,258.767C359.746,260.414 360.251,262.085 361.097,263.622C361.196,263.809 361.305,263.995 361.416,264.182C361.547,264.391 361.679,264.6 361.833,264.797C362.36,265.544 363.008,266.236 363.745,266.829C364.051,267.082 364.371,267.323 364.7,267.532C365.282,267.928 365.909,268.269 366.556,268.521C366.897,268.664 367.249,268.785 367.611,268.884C368.04,269.016 368.49,269.104 368.94,269.147C369.237,269.18 369.534,269.202 369.84,269.202C369.928,269.202 370.028,269.202 370.116,269.191C370.412,269.18 370.708,269.158 371.016,269.104C370.61,270.224 370.236,271.355 369.863,272.509C369.61,273.3 369.369,274.102 369.126,274.903C369.061,275.112 369.006,275.31 368.94,275.519C368.743,276.166 368.446,276.936 368.281,277.66C368.127,278.298 368.072,278.901 368.259,279.33C368.446,279.791 368.918,280.077 369.852,280.011C369.951,280 370.049,279.989 370.148,279.979C370.511,279.935 370.863,279.868 371.225,279.791C372.444,279.528 373.63,279.066 374.696,278.396C375.333,278.001 375.773,277.396 376.311,276.892C376.872,276.375 377.475,276.067 378.124,275.65C379.706,274.65 381.067,273.376 382.496,272.179C383.913,270.981 385.472,269.564 387.306,269.125C388.076,268.938 388.844,268.763 389.614,268.598C390.075,268.499 390.525,268.4 390.987,268.302C392.25,268.038 393.524,267.785 394.788,267.543C397.226,267.071 399.675,266.741 402.147,266.555C405.417,266.308 408.702,266.311 411.977,266.167C413.786,266.088 415.603,266.073 417.4,265.831C418.462,265.688 419.55,265.685 420.595,265.423C423.017,264.814 425.559,264.522 427.872,263.558C429.99,262.673 431.806,261.354 433.239,259.556C436.039,256.038 437.336,251.396 437.88,247.002C438.068,245.519 438.792,244.256 438.968,242.751Z" style="fill:white;fill-rule:nonzero;"/>
        </g>
        <g transform="matrix(7.70546,0,0,7.70546,-2767.07,-1647.47)">
            <path d="M424.671,224.701C425.369,224.604 425.072,223.546 424.379,223.642C408.18,225.874 391.822,226.229 375.495,226.555C374.789,226.568 374.787,227.667 375.495,227.653C391.923,227.326 408.372,226.947 424.671,224.701Z" style="fill:white;fill-rule:nonzero;"/>
        </g>
        <g transform="matrix(7.70546,0,0,7.70546,-2767.07,-1647.47)">
            <path d="M376.379,235.434C392.562,232.45 409.007,231.701 425.415,230.998C426.12,230.968 426.124,229.869 425.415,229.899C408.909,230.607 392.367,231.373 376.087,234.375C375.393,234.503 375.687,235.562 376.379,235.434Z" style="fill:white;fill-rule:nonzero;"/>
        </g>
        <g transform="matrix(7.70546,0,0,7.70546,-2767.07,-1647.47)">
            <path d="M430.857,237.622C421.574,237.655 412.311,238.266 403.107,239.486C394.014,240.691 385.106,241.371 375.933,241.458C375.227,241.465 375.225,242.563 375.933,242.557C384.784,242.473 393.427,241.892 402.197,240.707C411.705,239.424 421.263,238.754 430.857,238.721C431.564,238.719 431.565,237.62 430.857,237.622Z" style="fill:white;fill-rule:nonzero;"/>
        </g>
        <g transform="matrix(7.70546,0,0,7.70546,-2767.07,-1647.47)">
            <path d="M429.826,245.309C421.24,246.827 412.328,247.08 403.647,247.83C394.968,248.579 386.29,249.328 377.611,250.077C376.912,250.138 376.906,251.237 377.611,251.176C386.651,250.396 395.692,249.615 404.732,248.835C413.159,248.107 421.783,247.842 430.118,246.368C430.813,246.245 430.518,245.187 429.826,245.309Z" style="fill:white;fill-rule:nonzero;"/>
        </g>
    </g>
</svg>
